<svg viewBox="518.039 294.4442 380.0001 220.1115" width="5000" height="2896.2031852096884" xmlns="http://www.w3.org/2000/svg" xmlns:xlink="http://www.w3.org/1999/xlink" preserveAspectRatio="none"><defs></defs><style>.aa5yD1byLKhafillColor {fill:#333258;fill-opacity:1;}.aa5yD1byLKhastrokeColor-str {stroke:#333258;stroke-opacity:1;}.aE74sjRemupfillColor {fill:#333258;fill-opacity:1;}.aE74sjRemupstrokeColor-str {stroke:#333258;stroke-opacity:1;}.aNCv0FFHMpnfillColor {fill:#333258;fill-opacity:1;}.aNCv0FFHMpnstrokeColor-str {stroke:#333258;stroke-opacity:1;}.asY0-lTRYhlfillColor {fill:#333258;fill-opacity:1;}.asY0-lTRYhlstrokeColor-str {stroke:#333258;stroke-opacity:1;}.aX6I-DWGeOHfillColor {fill:#333258;fill-opacity:1;}.aX6I-DWGeOHstrokeColor-str {stroke:#333258;stroke-opacity:1;}.ayXRuMR-PuSfillColor {fill:#333258;fill-opacity:1;}.ayXRuMR-PuSstrokeColor-str {stroke:#333258;stroke-opacity:1;}.companyName {fill:#333258;fill-opacity:1;}.icon3-str {stroke:#8C94CC;stroke-opacity:1;}</style><defs></defs><g opacity="1" transform="rotate(0 518.039 480.6191)">
<svg width="380.0001" height="33.9366" x="518.039" y="480.6191" version="1.1" preserveAspectRatio="none" viewBox="2.4 -31.64 358.76000000000005 32.04">
  <g transform="matrix(1 0 0 1 0 0)" class="companyName"><path id="id-D6z1nYkh14" d="M18.04-31.64Q23.64-31.64 27.92-28.08L27.92-28.08Q28.28-27.80 28.28-27.28L28.28-27.28Q28.28-26.80 27.96-26.42Q27.64-26.04 27.08-26.04L27.08-26.04Q26.64-26.04 26.08-26.52L26.08-26.52Q23.04-29.24 18.04-29.24L18.04-29.24Q14.52-29.24 11.46-27.36Q8.40-25.48 6.60-22.34Q4.80-19.20 4.80-15.64L4.80-15.64Q4.80-11.96 6.58-8.82Q8.36-5.68 11.42-3.84Q14.48-2 18.04-2L18.04-2Q22.76-2 26.32-4.92L26.32-4.92Q26.60-5.12 26.92-5.12L26.92-5.12Q27.40-5.12 27.78-4.76Q28.16-4.40 28.16-3.88L28.16-3.88Q28.16-3.36 27.88-3.04L27.88-3.04Q24.44 0.40 18.04 0.40L18.04 0.40Q13.84 0.40 10.24-1.78Q6.64-3.96 4.52-7.66Q2.40-11.36 2.40-15.64L2.40-15.64Q2.40-19.92 4.50-23.60Q6.60-27.28 10.18-29.46Q13.76-31.64 18.04-31.64L18.04-31.64Z M60.16-1.72Q60.28-1.48 60.28-1.20L60.28-1.20Q60.28-0.72 59.92-0.36Q59.56 0 59.08 0L59.08 0Q58.28 0 57.96-0.76L57.96-0.76L55-7.84L38.72-7.84L35.76-0.76Q35.48 0 34.64 0L34.64 0Q34.08 0 33.76-0.36Q33.44-0.72 33.44-1.20L33.44-1.20Q33.44-1.48 33.56-1.72L33.56-1.72L45.68-30.40Q46-31.24 46.84-31.24L46.84-31.24Q47.64-31.24 48-30.40L48-30.40L60.16-1.72ZM39.64-10L54.08-10L46.84-27.28L39.64-10Z M104-1.72Q104.12-1.48 104.12-1.20L104.12-1.20Q104.12-0.72 103.76-0.36Q103.40 0 102.92 0L102.92 0Q102.12 0 101.80-0.76L101.80-0.76L98.84-7.84L82.56-7.84L79.60-0.76Q79.32 0 78.48 0L78.48 0Q77.92 0 77.60-0.36Q77.28-0.72 77.28-1.20L77.28-1.20Q77.28-1.48 77.40-1.72L77.40-1.72L89.52-30.40Q89.84-31.24 90.68-31.24L90.68-31.24Q91.48-31.24 91.84-30.40L91.84-30.40L104-1.72ZM83.48-10L97.92-10L90.68-27.28L83.48-10Z M128.76-21.88Q129.32-21.88 129.64-21.56Q129.96-21.24 129.96-20.68L129.96-20.68L129.96-1.20Q129.96-0.68 129.64-0.34Q129.32 0 128.76 0L128.76 0Q128.24 0 127.90-0.34Q127.56-0.68 127.56-1.20L127.56-1.20L127.56-3.28Q126.20-1.60 124.24-0.66Q122.28 0.28 119.96 0.28L119.96 0.28Q117.04 0.28 114.74-0.92Q112.44-2.12 111.14-4.42Q109.84-6.72 109.84-9.92L109.84-9.92L109.84-20.68Q109.84-21.20 110.18-21.54Q110.52-21.88 111.04-21.88L111.04-21.88Q111.56-21.88 111.90-21.54Q112.24-21.20 112.24-20.68L112.24-20.68L112.24-9.92Q112.24-6.12 114.38-4.12Q116.52-2.12 119.96-2.12L119.96-2.12Q122.08-2.12 123.82-2.94Q125.56-3.76 126.56-5.22Q127.56-6.68 127.56-8.44L127.56-8.44L127.56-20.68Q127.56-21.24 127.90-21.56Q128.24-21.88 128.76-21.88L128.76-21.88Z M149.04-2.44Q149.60-2.44 149.94-2.10Q150.28-1.76 150.28-1.20L150.28-1.20Q150.28-0.68 149.94-0.34Q149.60 0 149.04 0L149.04 0L148.12 0Q145.92 0 144.20-1Q142.48-2 141.52-3.74Q140.56-5.48 140.56-7.68L140.56-7.68L140.56-18.92L137.44-18.92Q136.96-18.92 136.66-19.22Q136.36-19.52 136.36-20L136.36-20Q136.36-20.48 136.66-20.78Q136.96-21.08 137.44-21.08L137.44-21.08L140.56-21.08L140.56-27.60Q140.56-28.16 140.90-28.50Q141.24-28.84 141.76-28.84L141.76-28.84Q142.32-28.84 142.66-28.50Q143-28.16 143-27.60L143-27.60L143-21.08L148.28-21.08Q148.76-21.08 149.06-20.78Q149.36-20.48 149.36-20L149.36-20Q149.36-19.52 149.06-19.22Q148.76-18.92 148.28-18.92L148.28-18.92L143-18.92L143-7.68Q143-5.36 144.44-3.90Q145.88-2.44 148.16-2.44L148.16-2.44L149.04-2.44Z M167.28-22.12Q170.40-22.12 172.96-20.66Q175.52-19.20 176.98-16.64Q178.44-14.08 178.44-10.92L178.44-10.92Q178.44-7.80 176.98-5.24Q175.52-2.68 172.96-1.22Q170.40 0.24 167.28 0.24L167.28 0.24Q164.12 0.24 161.56-1.22Q159-2.68 157.54-5.24Q156.08-7.80 156.08-10.92L156.08-10.92Q156.08-14.08 157.54-16.64Q159-19.20 161.56-20.66Q164.12-22.12 167.28-22.12L167.28-22.12ZM167.28-19.88Q164.80-19.88 162.80-18.70Q160.80-17.52 159.64-15.48Q158.48-13.44 158.48-10.92L158.48-10.92Q158.48-8.40 159.64-6.36Q160.80-4.32 162.80-3.16Q164.80-2 167.28-2L167.28-2Q169.76-2 171.76-3.16Q173.76-4.32 174.90-6.36Q176.04-8.40 176.04-10.92L176.04-10.92Q176.04-13.44 174.90-15.48Q173.76-17.52 171.76-18.70Q169.76-19.88 167.28-19.88L167.28-19.88Z M209.52-22.16Q211.92-22.16 213.80-20.96Q215.68-19.76 216.72-17.62Q217.76-15.48 217.76-12.76L217.76-12.76L217.76-1.20Q217.76-0.68 217.44-0.34Q217.12 0 216.56 0L216.56 0Q216.04 0 215.70-0.34Q215.36-0.68 215.36-1.20L215.36-1.20L215.36-12.76Q215.36-15.84 213.72-17.80Q212.08-19.76 209.52-19.76L209.52-19.76Q206.72-19.76 205-17.92Q203.28-16.08 203.36-13.04L203.36-13.04L203.36-12.76L203.36-1.20Q203.36-0.68 203.04-0.34Q202.72 0 202.16 0L202.16 0Q201.64 0 201.30-0.34Q200.96-0.68 200.96-1.20L200.96-1.20L200.96-12.76Q200.96-15.84 199.32-17.80Q197.68-19.76 195.12-19.76L195.12-19.76Q192.36-19.76 190.60-18Q188.84-16.24 188.84-13.44L188.84-13.44L188.84-1.20Q188.84-0.68 188.52-0.34Q188.20 0 187.64 0L187.64 0Q187.12 0 186.78-0.34Q186.44-0.68 186.44-1.20L186.44-1.20L186.44-20.68Q186.44-21.24 186.78-21.56Q187.12-21.88 187.64-21.88L187.64-21.88Q188.20-21.88 188.52-21.56Q188.84-21.24 188.84-20.68L188.84-20.68L188.84-19.12Q189.96-20.56 191.60-21.36Q193.24-22.16 195.12-22.16L195.12-22.16Q197.44-22.16 199.28-21.02Q201.12-19.88 202.20-17.88L202.20-17.88Q203.28-19.88 205.20-21.02Q207.12-22.16 209.52-22.16L209.52-22.16Z M236.56-22.12Q239.68-22.12 242.24-20.66Q244.80-19.20 246.26-16.64Q247.72-14.08 247.72-10.92L247.72-10.92L247.72-1.20Q247.72-0.68 247.40-0.34Q247.08 0 246.52 0L246.52 0Q246 0 245.66-0.34Q245.32-0.68 245.32-1.20L245.32-1.20L245.32-4.32Q244-2.20 241.70-0.98Q239.40 0.24 236.56 0.24L236.56 0.24Q233.40 0.24 230.84-1.22Q228.28-2.68 226.82-5.24Q225.36-7.80 225.36-10.92L225.36-10.92Q225.36-14.08 226.82-16.64Q228.28-19.20 230.84-20.66Q233.40-22.12 236.56-22.12L236.56-22.12ZM236.56-2Q239.04-2 241.04-3.16Q243.04-4.32 244.18-6.36Q245.32-8.40 245.32-10.92L245.32-10.92Q245.32-13.44 244.18-15.48Q243.04-17.52 241.04-18.70Q239.04-19.88 236.56-19.88L236.56-19.88Q234.08-19.88 232.08-18.70Q230.08-17.52 228.92-15.48Q227.76-13.44 227.76-10.92L227.76-10.92Q227.76-8.40 228.92-6.36Q230.08-4.32 232.08-3.16Q234.08-2 236.56-2L236.56-2Z M265.60-2.44Q266.16-2.44 266.50-2.10Q266.84-1.76 266.84-1.20L266.84-1.20Q266.84-0.68 266.50-0.34Q266.16 0 265.60 0L265.60 0L264.68 0Q262.48 0 260.76-1Q259.04-2 258.08-3.74Q257.12-5.48 257.12-7.68L257.12-7.68L257.12-18.92L254-18.92Q253.52-18.92 253.22-19.22Q252.92-19.52 252.92-20L252.92-20Q252.92-20.48 253.22-20.78Q253.52-21.08 254-21.08L254-21.08L257.12-21.08L257.12-27.60Q257.12-28.16 257.46-28.50Q257.80-28.84 258.32-28.84L258.32-28.84Q258.88-28.84 259.22-28.50Q259.56-28.16 259.56-27.60L259.56-27.60L259.56-21.08L264.84-21.08Q265.32-21.08 265.62-20.78Q265.92-20.48 265.92-20L265.92-20Q265.92-19.52 265.62-19.22Q265.32-18.92 264.84-18.92L264.84-18.92L259.56-18.92L259.56-7.68Q259.56-5.36 261-3.90Q262.44-2.44 264.72-2.44L264.72-2.44L265.60-2.44Z M274.64-20.68Q274.64-21.24 274.98-21.56Q275.32-21.88 275.84-21.88L275.84-21.88Q276.40-21.88 276.72-21.56Q277.04-21.24 277.04-20.68L277.04-20.68L277.04-1.20Q277.04-0.68 276.72-0.34Q276.40 0 275.84 0L275.84 0Q275.32 0 274.98-0.34Q274.64-0.68 274.64-1.20L274.64-1.20L274.64-20.68ZM275.84-30.20Q276.60-30.20 277.14-29.72Q277.68-29.24 277.68-28.36L277.68-28.36Q277.68-27.56 277.14-27.02Q276.60-26.48 275.80-26.48L275.80-26.48Q275-26.48 274.48-27.02Q273.96-27.56 273.96-28.36L273.96-28.36Q273.96-29.24 274.52-29.72Q275.08-30.20 275.84-30.20L275.84-30.20Z M297.04-22.12Q300.16-22.12 302.72-20.66Q305.28-19.20 306.74-16.64Q308.20-14.08 308.20-10.92L308.20-10.92Q308.20-7.80 306.74-5.24Q305.28-2.68 302.72-1.22Q300.16 0.24 297.04 0.24L297.04 0.24Q293.88 0.24 291.32-1.22Q288.76-2.68 287.30-5.24Q285.84-7.80 285.84-10.92L285.84-10.92Q285.84-14.08 287.30-16.64Q288.76-19.20 291.32-20.66Q293.88-22.12 297.04-22.12L297.04-22.12ZM297.04-19.88Q294.56-19.88 292.56-18.70Q290.56-17.52 289.40-15.48Q288.24-13.44 288.24-10.92L288.24-10.92Q288.24-8.40 289.40-6.36Q290.56-4.32 292.56-3.16Q294.56-2 297.04-2L297.04-2Q299.52-2 301.52-3.16Q303.52-4.32 304.66-6.36Q305.80-8.40 305.80-10.92L305.80-10.92Q305.80-13.44 304.66-15.48Q303.52-17.52 301.52-18.70Q299.52-19.88 297.04-19.88L297.04-19.88Z M326.20-22.16Q329.12-22.16 331.42-20.96Q333.72-19.76 335.02-17.46Q336.32-15.16 336.32-11.96L336.32-11.96L336.32-1.20Q336.32-0.68 335.98-0.34Q335.64 0 335.12 0L335.12 0Q334.60 0 334.26-0.34Q333.92-0.68 333.92-1.20L333.92-1.20L333.92-11.96Q333.92-15.76 331.78-17.76Q329.64-19.76 326.20-19.76L326.20-19.76Q324.08-19.76 322.34-18.94Q320.60-18.12 319.60-16.66Q318.60-15.20 318.60-13.44L318.60-13.44L318.60-1.20Q318.60-0.68 318.28-0.34Q317.96 0 317.40 0L317.40 0Q316.88 0 316.54-0.34Q316.20-0.68 316.20-1.20L316.20-1.20L316.20-20.68Q316.20-21.24 316.54-21.56Q316.88-21.88 317.40-21.88L317.40-21.88Q317.96-21.88 318.28-21.56Q318.60-21.24 318.60-20.68L318.60-20.68L318.60-18.60Q319.96-20.28 321.92-21.22Q323.88-22.16 326.20-22.16L326.20-22.16Z M352.60-22.12Q357.64-22.12 360.24-18.52L360.24-18.52Q360.48-18.24 360.48-17.84L360.48-17.84Q360.48-17.28 359.84-16.92L359.84-16.92Q359.44-16.76 359.24-16.76L359.24-16.76Q358.64-16.76 358.24-17.28L358.24-17.28Q356.20-19.88 352.52-19.88L352.52-19.88Q350.08-19.88 348.64-18.82Q347.20-17.76 347.20-16.20L347.20-16.20Q347.20-14.60 348.58-13.64Q349.96-12.68 353.20-12.20L353.20-12.20Q357.44-11.60 359.30-9.94Q361.16-8.28 361.16-5.92L361.16-5.92Q361.16-4.08 359.98-2.68Q358.80-1.28 356.84-0.52Q354.88 0.24 352.56 0.24L352.56 0.24Q350.24 0.24 348.04-0.58Q345.84-1.40 344.40-3.08L344.40-3.08Q344.12-3.40 344.12-3.80L344.12-3.80Q344.12-4.36 344.64-4.72L344.64-4.72Q344.88-4.92 345.32-4.92L345.32-4.92Q345.88-4.92 346.24-4.48L346.24-4.48Q348.24-2.04 352.68-2.04L352.68-2.04Q355.84-2.04 357.34-3.16Q358.84-4.28 358.84-6.04L358.84-6.04Q358.84-9.20 352.72-10.08L352.72-10.08Q348.84-10.64 346.86-12.20Q344.88-13.76 344.88-15.96L344.88-15.96Q344.88-18.88 347.02-20.50Q349.16-22.12 352.60-22.12L352.60-22.12Z"/></g>
</svg>
</g><g opacity="1" transform="rotate(0 680.5722 294.4442)">
<svg width="54.9338" height="46.6934" x="680.5722" y="294.4442" version="1.1" preserveAspectRatio="none" viewBox="20 32 160 136">
  <defs><g transform="matrix(1 0 0 1 0 0)" id="id-sY0-lTRYhl"><g><path d="M60 168l-40-68 40-68h80l40 68-40 68H60z"></path></g></g></defs><use class="asY0-lTRYhlfillColor asY0-lTRYhlstrokeColor-str" style="stroke-width:0;" xlink:href="#id-sY0-lTRYhl"></use>
</svg>
</g><g opacity="1" transform="rotate(0 726.1541 321.7931)">
<svg width="54.9335" height="46.6937" x="726.1541" y="321.7931" version="1.1" preserveAspectRatio="none" viewBox="20 32 160 136">
  <defs><g transform="matrix(1 0 0 1 0 0)" id="id-yXRuMR-PuS"><g><path d="M60 168l-40-68 40-68h80l40 68-40 68H60z"></path></g></g></defs><use class="ayXRuMR-PuSfillColor ayXRuMR-PuSstrokeColor-str" style="stroke-width:0;" xlink:href="#id-yXRuMR-PuS"></use>
</svg>
</g><g opacity="1" transform="rotate(0 726.1541 373.4525)">
<svg width="54.9335" height="46.6935" x="726.1541" y="373.4525" version="1.1" preserveAspectRatio="none" viewBox="20 32 160 136">
  <defs><g transform="matrix(1 0 0 1 0 0)" id="id-a5yD1byLKha"><g><path d="M60 168l-40-68 40-68h80l40 68-40 68H60z"></path></g></g></defs><use class="aa5yD1byLKhafillColor aa5yD1byLKhastrokeColor-str" style="stroke-width:0;" xlink:href="#id-a5yD1byLKha"></use>
</svg>
</g><g opacity="1" transform="rotate(0 680.5722 398.037)">
<svg width="54.9338" height="46.6936" x="680.5722" y="398.037" version="1.1" preserveAspectRatio="none" viewBox="20 32 160 136">
  <defs><g transform="matrix(1 0 0 1 0 0)" id="id-X6I-DWGeOH"><g><path d="M60 168l-40-68 40-68h80l40 68-40 68H60z"></path></g></g></defs><use class="aX6I-DWGeOHfillColor aX6I-DWGeOHstrokeColor-str" style="stroke-width:0;" xlink:href="#id-X6I-DWGeOH"></use>
</svg>
</g><g opacity="1" transform="rotate(0 634.9906 321.7931)">
<svg width="54.9335" height="46.6937" x="634.9906" y="321.7931" version="1.1" preserveAspectRatio="none" viewBox="20 32 160 136">
  <defs><g transform="matrix(1 0 0 1 0 0)" id="id-NCv0FFHMpn"><g><path d="M60 168l-40-68 40-68h80l40 68-40 68H60z"></path></g></g></defs><use class="aNCv0FFHMpnfillColor aNCv0FFHMpnstrokeColor-str" style="stroke-width:0;" xlink:href="#id-NCv0FFHMpn"></use>
</svg>
</g><g opacity="1" transform="rotate(0 634.9906 373.4525)">
<svg width="54.9335" height="46.6935" x="634.9906" y="373.4525" version="1.1" preserveAspectRatio="none" viewBox="20 32 160 136">
  <defs><g transform="matrix(1 0 0 1 0 0)" id="id-E74sjRemup"><g><path d="M60 168l-40-68 40-68h80l40 68-40 68H60z"></path></g></g></defs><use class="aE74sjRemupfillColor aE74sjRemupstrokeColor-str" style="stroke-width:0;" xlink:href="#id-E74sjRemup"></use>
</svg>
</g></svg>